 <svg version="1.0" xmlns="http://www.w3.org/2000/svg" width="700.000000pt" height="482.000000pt" viewBox="0 0 700.000000 482.000000" preserveAspectRatio="xMidYMid meet">
<metadata>
Created by potrace 1.12, written by Peter Selinger 2001-2015
</metadata>
<g transform="translate(0.000000,482.000000) scale(0.100000,-0.100000)" fill="#000000" stroke="none">
<path d="M2590 3167 c-57 -29 -57 -25 173 -567 169 -398 220 -509 241 -525 27
-20 40 -20 576 -20 524 0 549 1 569 19 26 23 28 78 4 97 -13 11 -116 15 -541
19 l-526 5 -201 474 c-193 454 -222 511 -259 511 -6 0 -22 -6 -36 -13z"></path>
<path d="M2880 2941 c0 -5 13 -39 30 -75 l29 -66 719 0 718 0 31 75 32 75
-780 0 c-459 0 -779 -4 -779 -9z"></path>
<path d="M2990 2690 c0 -3 14 -38 32 -77 l32 -73 601 0 602 0 32 70 c17 39 31
74 31 78 0 4 -299 7 -665 7 -366 0 -665 -2 -665 -5z"></path>
<path d="M3116 2403 c9 -21 23 -55 32 -75 l15 -38 492 0 492 0 28 63 c15 34
29 68 32 75 4 9 -110 12 -551 12 l-556 0 16 -37z"></path>
<path d="M3112 1950 c-39 -24 -72 -75 -72 -113 0 -43 29 -97 64 -119 48 -30
128 -21 168 19 69 69 49 182 -39 219 -45 19 -82 17 -121 -6z"></path>
<path d="M3893 1950 c-124 -75 -75 -250 70 -250 86 0 150 86 127 170 -23 84
-124 125 -197 80z"></path>
</g>
</svg>